<svg width="40" height="41" viewBox="0 0 40 41" fill="none" xmlns="http://www.w3.org/2000/svg">
<rect x="1.00006" y="1.24432" width="37.965" height="37.965" rx="9" stroke="white" stroke-width="2"/>
<path fill-rule="evenodd" clip-rule="evenodd" d="M17.513 26.3759C18.3216 26.7109 19.1881 26.8832 20.0633 26.8832C21.8311 26.8832 23.5262 26.181 24.776 24.9312C26.026 23.6813 26.7282 21.9861 26.7282 20.2185C26.7282 18.451 26.026 16.7557 24.776 15.5059C23.5262 14.256 21.8311 13.5538 20.0633 13.5538C19.1881 13.5538 18.3216 13.7262 17.513 14.0611C16.7042 14.3961 15.9696 14.887 15.3507 15.5059C14.7319 16.1247 14.2409 16.8594 13.906 17.668C13.5711 18.4766 13.3987 19.3433 13.3987 20.2185C13.3987 21.0938 13.5711 21.9605 13.906 22.7691C14.2409 23.5777 14.7319 24.3123 15.3507 24.9312C15.9696 25.55 16.7042 26.041 17.513 26.3759ZM12.8037 12.9588C14.7291 11.0335 17.3405 9.95178 20.0633 9.95178C22.7864 9.95178 25.3977 11.0335 27.3231 12.9588C29.2484 14.8842 30.3301 17.4957 30.3301 20.2185C30.3301 22.9414 29.2484 25.5527 27.3231 27.4783C25.3977 29.4036 22.7864 30.4853 20.0633 30.4853C17.3405 30.4853 14.7291 29.4036 12.8037 27.4783C10.8783 25.5527 9.79666 22.9414 9.79666 20.2185C9.79666 17.4957 10.8783 14.8842 12.8037 12.9588ZM32.6066 11.4814C33.0617 11.0263 33.3173 10.409 33.3173 9.76537C33.3173 9.12171 33.0617 8.50443 32.6066 8.04931C32.1514 7.59419 31.5342 7.3385 30.8905 7.3385C30.2469 7.3385 29.6295 7.59419 29.1745 8.04931C28.7193 8.50443 28.4636 9.12171 28.4636 9.76537C28.4636 10.409 28.7193 11.0263 29.1745 11.4814C29.6295 11.9365 30.2469 12.1922 30.8905 12.1922C31.5342 12.1922 32.1514 11.9365 32.6066 11.4814Z" fill="white"/>
</svg>
