<svg width="41" height="41" viewBox="0 0 41 41" fill="none" xmlns="http://www.w3.org/2000/svg">
<rect x="1.92999" y="1.24435" width="37.965" height="37.965" rx="18" stroke="white" stroke-width="2"/>
<path fill-rule="evenodd" clip-rule="evenodd" d="M22.4516 15.556C20.6126 16.3267 16.9368 17.9219 11.4245 20.3415C10.5294 20.7002 10.0605 21.051 10.0179 21.3941C9.9457 21.9739 10.6663 22.2022 11.6476 22.513C11.7811 22.5554 11.9194 22.5992 12.0612 22.6456C13.0267 22.9618 14.3253 23.3317 15.0005 23.3463C15.6129 23.3596 16.2964 23.1053 17.051 22.5832C22.2014 19.0805 24.8599 17.3101 25.0268 17.2719C25.1447 17.245 25.3077 17.2111 25.4184 17.3102C25.5288 17.4091 25.5181 17.5966 25.5063 17.647C25.4349 17.9535 22.6062 20.6032 21.1423 21.9743C20.686 22.4017 20.3623 22.7049 20.2962 22.7742C20.1479 22.9294 19.9968 23.0761 19.8516 23.2171C18.9547 24.0882 18.2821 24.7415 19.8888 25.8083C20.6611 26.3209 21.2789 26.7448 21.8954 27.1677C22.5685 27.6297 23.2399 28.0904 24.1086 28.6642C24.33 28.8104 24.5413 28.9621 24.7473 29.1099C25.5307 29.6727 26.2346 30.1782 27.1041 30.0976C27.6094 30.0507 28.1313 29.5721 28.3963 28.1446C29.0227 24.7707 30.2539 17.4604 30.5385 14.448C30.5636 14.1841 30.5322 13.8463 30.507 13.698C30.4818 13.5498 30.4292 13.3385 30.2379 13.1821C30.0113 12.9969 29.6616 12.9579 29.5052 12.9606C28.7939 12.9733 27.7028 13.3555 22.4516 15.556Z" fill="white"/>
</svg>
