<svg width="41" height="41" viewBox="0 0 41 41" fill="none" xmlns="http://www.w3.org/2000/svg">
<rect x="1.96503" y="1.24432" width="37.965" height="37.965" rx="9" stroke="white" stroke-width="2"/>
<path fill-rule="evenodd" clip-rule="evenodd" d="M32.7604 15.6381C32.9349 15.1418 32.7604 14.777 31.9299 14.777H29.1834C28.485 14.777 28.1631 15.0921 27.9885 15.4395C27.9885 15.4395 26.5917 18.3431 24.6131 20.2291C23.973 20.775 23.682 20.9488 23.3328 20.9488C23.1582 20.9488 22.8963 20.775 22.8963 20.2788V15.6381C22.8963 15.0425 22.7029 14.777 22.1209 14.777H17.8049C17.3685 14.777 17.106 15.0535 17.106 15.3155C17.106 15.8801 18.0953 16.0103 18.1973 17.5986V21.0481C18.1973 21.8043 18.0371 21.9415 17.6879 21.9415C16.7569 21.9415 14.492 19.025 13.1487 15.6877C12.8855 15.0391 12.6214 14.777 11.9195 14.777H9.173C8.38828 14.777 8.23132 15.0921 8.23132 15.4395C8.23132 16.0599 9.16245 19.1372 12.5668 23.2071C14.8364 25.9865 18.034 27.4932 20.9437 27.4932C22.6896 27.4932 22.9056 27.1585 22.9056 26.5821V24.4814C22.9056 23.8122 23.071 23.6786 23.6238 23.6786C24.0312 23.6786 24.7295 23.8523 26.3589 25.1924C28.2212 26.7807 28.5282 27.4932 29.5756 27.4932H32.3222C33.1069 27.4932 33.4993 27.1585 33.2729 26.4981C33.0252 25.84 32.1362 24.8851 30.9564 23.7531C30.3162 23.1078 29.356 22.413 29.065 22.0655C28.6576 21.6189 28.774 21.4203 29.065 21.0233C29.065 21.0233 32.4113 17.003 32.7604 15.6381Z" fill="white"/>
</svg>
