<svg width="440" height="667" viewBox="0 0 440 667" fill="none" xmlns="http://www.w3.org/2000/svg">
<path d="M378 2131C188.5 2121 65.5 2092 30.5002 2006C-4.49964 1920 234.5 1976.5 328.5 1950.5C422.5 1924.5 348.31 1810.24 58.5001 1686.5C-119.5 1610.5 491 1740.5 291.5 1504.5C206.824 1404.33 292.527 1668.84 90.5001 1533.5C-12.4999 1464.5 -17.9999 1339 157 1324.5C396.96 1304.62 318 1155 191 1152C-37.936 1146.59 -31.4999 844.947 111.5 794.5C335.889 715.341 458.274 452.706 209 441C28.0004 432.5 127.5 338.354 251 301.5C479.698 233.254 521.5 -54 158 30C80.2387 47.9696 25.2496 54.1306 1 36.3674" stroke="url(#paint0_linear_64_76)" stroke-width="2"/>
<defs>
<linearGradient id="paint0_linear_64_76" x1="29.3638" y1="681.029" x2="539.819" y2="674.261" gradientUnits="userSpaceOnUse">
<stop offset="0.215765" stop-color="#63021F"/>
<stop offset="0.5" stop-color="#46427C" stop-opacity="0"/>
<stop offset="0.729447" stop-color="#044F93"/>
</linearGradient>
</defs>
</svg>
