<svg width="233" height="349" viewBox="0 0 233 349" fill="none" xmlns="http://www.w3.org/2000/svg">
<path d="M371 1326C181.5 1316 58.5 1287 23.5002 1201C-11.4996 1115 227.5 1171.5 321.5 1145.5C415.5 1119.5 341.31 1005.24 51.5001 881.5C-126.5 805.5 484 935.5 284.5 699.5C199.824 599.331 285.527 863.838 83.5001 728.5C-19.4999 659.5 -24.9999 534 150 519.5C389.96 499.618 311 350 184 347C-44.936 341.592 -38.4999 39.9473 104.5 -10.4999C328.889 -89.6595 451.274 -352.294 202 -364C21.0004 -372.5 120.5 -466.646 244 -503.5C472.698 -571.746 514.5 -859 151 -775C73.2387 -757.03 18.2496 -750.869 -6 -768.633" stroke="url(#paint0_linear_64_76)" stroke-width="2"/>
<defs>
<linearGradient id="paint0_linear_64_76" x1="22.3638" y1="-123.971" x2="532.819" y2="-130.739" gradientUnits="userSpaceOnUse">
<stop offset="0.215765" stop-color="#63021F"/>
<stop offset="0.5" stop-color="#46427C" stop-opacity="0"/>
<stop offset="0.729447" stop-color="#044F93"/>
</linearGradient>
</defs>
</svg>
