<svg width="221" height="183" viewBox="0 0 221 183" fill="none" xmlns="http://www.w3.org/2000/svg">
<path d="M364 820.251C174.5 810.251 51.5 781.251 16.5002 695.251C-18.4996 609.251 220.5 665.751 314.5 639.751C408.5 613.751 334.31 499.49 44.5001 375.751C-133.5 299.751 477 429.751 277.5 193.751C192.824 93.582 278.527 358.089 76.5001 222.751C-26.4999 153.751 -31.9999 28.2507 143 13.7507C382.96 -6.13169 304 -155.749 177 -158.749C-51.936 -164.157 -45.4999 -465.802 97.5001 -516.249C321.889 -595.409 444.274 -858.043 195 -869.749C14.0004 -878.249 113.5 -972.395 237 -1009.25C465.698 -1077.5 507.5 -1364.75 144 -1280.75C66.2387 -1262.78 11.2496 -1256.62 -13 -1274.38" stroke="url(#paint0_linear_64_76)" stroke-width="2"/>
<defs>
<linearGradient id="paint0_linear_64_76" x1="15.3638" y1="-629.72" x2="525.819" y2="-636.489" gradientUnits="userSpaceOnUse">
<stop offset="0.215765" stop-color="#63021F"/>
<stop offset="0.5" stop-color="#46427C" stop-opacity="0"/>
<stop offset="0.729447" stop-color="#044F93"/>
</linearGradient>
</defs>
</svg>
