<svg width="304" height="165" viewBox="0 0 304 165" fill="none" xmlns="http://www.w3.org/2000/svg">
<path d="M362 165C172.5 155 49.5 126 14.5002 40C-20.4996 -46 218.5 10.5 312.5 -15.5C406.5 -41.5 332.31 -155.761 42.5001 -279.5C-135.5 -355.5 475 -225.5 275.5 -461.5C190.824 -561.669 276.527 -297.162 74.5001 -432.5C-28.4999 -501.5 -33.9999 -627 141 -641.5C380.96 -661.382 302 -811 175 -814C-53.936 -819.408 -47.4999 -1121.05 95.5001 -1171.5C319.889 -1250.66 442.274 -1513.29 193 -1525C12.0004 -1533.5 111.5 -1627.65 235 -1664.5C463.698 -1732.75 505.5 -2020 142 -1936C64.2387 -1918.03 9.24962 -1911.87 -15 -1929.63" stroke="url(#paint0_linear_64_76)" stroke-width="2"/>
<defs>
<linearGradient id="paint0_linear_64_76" x1="13.3638" y1="-1284.97" x2="523.819" y2="-1291.74" gradientUnits="userSpaceOnUse">
<stop offset="0.215765" stop-color="#63021F"/>
<stop offset="0.5" stop-color="#46427C" stop-opacity="0"/>
<stop offset="0.729447" stop-color="#044F93"/>
</linearGradient>
</defs>
</svg>
