<svg width="1292" height="4370" viewBox="0 0 1292 4370" fill="none" xmlns="http://www.w3.org/2000/svg">
<path d="M199.5 1C-137 220.5 156.5 320.5 300.5 344.5C492.43 376.488 938.5 321.5 1112 470.5C1285.5 619.5 1023 569.5 1160 714C1623.1 1202.45 727.579 1129.54 438 1145.5C-356.958 1189.32 194.5 1499.5 575 1582.5C884 1731 165.5 1705.5 196.5 1992.5C-3.49992 2094.5 -114.5 2377 309.5 2442C638.164 2492.38 975 2350 1155 2577.5C1261.5 2712.11 1237.62 2954.01 1111 3096C917.5 3313 450.5 3279.5 180 3365.5C-90.5 3451.5 -20.5 3586.38 174.5 3641.5C408.619 3707.68 592 3657.5 793.5 3791C995 3924.5 936 3964.5 751.5 3970C684.5 3972 495.768 3949.41 346.5 4021.5C185 4099.5 217.013 4264.06 286.5 4322C440 4450 633.5 4291.5 568.5 4128C559.167 4101.5 527 4044 438 4021.5" stroke="url(#paint0_linear_53_93)" stroke-width="2"/>
<defs>
<linearGradient id="paint0_linear_53_93" x1="-381.502" y1="1684" x2="1312.18" y2="2322.62" gradientUnits="userSpaceOnUse">
<stop offset="0.131184" stop-color="#8C082F"/>
<stop offset="0.250125" stop-color="#46427C" stop-opacity="0"/>
<stop offset="0.474459" stop-color="#0276DE"/>
<stop offset="0.639634" stop-color="#076BC5" stop-opacity="0"/>
<stop offset="0.871421" stop-color="#0C61AD"/>
</linearGradient>
</defs>
</svg>
