<svg width="991" height="3434" viewBox="0 0 991 3434" fill="none" xmlns="http://www.w3.org/2000/svg">
<path d="M156.312 1.62903C-108.012 174.049 122.536 252.6 235.649 271.452C386.412 296.579 736.805 253.385 873.091 370.426C1009.38 487.467 803.18 448.192 910.795 561.698C1274.56 945.379 571.124 888.108 343.657 900.646C-280.791 935.064 152.385 1178.72 451.272 1243.91C693.995 1360.56 129.605 1340.53 153.956 1565.97C-3.14603 1646.1 -90.338 1868 242.719 1919.06C500.888 1958.64 765.476 1846.79 906.868 2025.5C990.527 2131.23 971.763 2321.25 872.306 2432.78C720.309 2603.24 353.476 2576.93 140.995 2644.48C-71.4855 2712.03 -16.4997 2817.98 136.675 2861.28C320.577 2913.26 362.146 2910.48 539.33 2978.71C685.5 3035 625.465 3147.5 480.474 3147.5C401.474 3147.5 316.368 3103.14 199.117 3159.77C72.2567 3221.04 97.4032 3350.31 151.986 3395.82C272.562 3496.37 424.558 3371.86 373.5 3243.43C366.169 3222.61 340.901 3177.45 270.991 3159.77" stroke="url(#paint0_linear_438_249)" stroke-width="2"/>
<defs>
<linearGradient id="paint0_linear_438_249" x1="-300.071" y1="1323.65" x2="1030.34" y2="1825.29" gradientUnits="userSpaceOnUse">
<stop offset="0.131184" stop-color="#8C082F"/>
<stop offset="0.250125" stop-color="#46427C" stop-opacity="0"/>
<stop offset="0.474459" stop-color="#0276DE"/>
<stop offset="0.639634" stop-color="#076BC5" stop-opacity="0"/>
<stop offset="0.871421" stop-color="#0C61AD"/>
</linearGradient>
</defs>
</svg>
