<svg width="428" height="2119" viewBox="0 0 428 2119" fill="none" xmlns="http://www.w3.org/2000/svg">
<path d="M378 2118C188.5 2108 65.5 2079 30.5002 1993C-4.49964 1907 234.5 1963.5 328.5 1937.5C422.5 1911.5 348.31 1797.24 58.5001 1673.5C-119.5 1597.5 491 1727.5 291.5 1491.5C206.824 1391.33 292.527 1655.84 90.5001 1520.5C-12.4999 1451.5 -17.9999 1326 157 1311.5C396.96 1291.62 318 1142 191 1139C-37.936 1133.59 -31.4999 831.947 111.5 781.5C335.889 702.341 458.274 439.706 209 428C28.0004 419.5 127.5 325.354 251 288.5C479.698 220.254 521.5 -67 158 17C80.2387 34.9696 25.2496 41.1306 1 23.3674" stroke="url(#paint0_linear_61_60)" stroke-width="2"/>
<defs>
<linearGradient id="paint0_linear_61_60" x1="29.3638" y1="668.029" x2="539.819" y2="661.261" gradientUnits="userSpaceOnUse">
<stop offset="0.215765" stop-color="#63021F"/>
<stop offset="0.5" stop-color="#46427C" stop-opacity="0"/>
<stop offset="0.729447" stop-color="#044F93"/>
</linearGradient>
</defs>
</svg>
