<svg width="529" height="422" viewBox="0 0 529 422" fill="none" xmlns="http://www.w3.org/2000/svg">
<path d="M53.3125 -3014.37C-211.012 -2841.95 19.5356 -2763.4 132.649 -2744.55C283.412 -2719.42 633.805 -2762.61 770.091 -2645.57C906.377 -2528.53 700.18 -2567.81 807.795 -2454.3C1171.56 -2070.62 468.124 -2127.89 240.657 -2115.35C-383.791 -2080.94 49.385 -1837.28 348.272 -1772.09C590.995 -1655.44 26.6053 -1675.47 50.9561 -1450.03C-106.146 -1369.9 -193.338 -1148 139.719 -1096.94C397.888 -1057.36 662.476 -1169.21 803.868 -990.503C887.527 -884.767 868.763 -694.752 769.306 -583.216C617.309 -412.76 250.476 -439.075 37.9951 -371.521C-174.486 -303.967 -119.5 -198.019 33.6748 -154.72C217.577 -102.735 259.146 -105.516 436.33 -37.2864C582.5 19.0002 522.465 131.5 377.474 131.5C298.474 131.5 213.368 87.1449 96.1167 143.774C-30.7433 205.044 -5.59683 334.305 48.9858 379.82C169.562 480.365 321.558 355.862 270.5 227.431C263.169 206.615 237.901 161.448 167.991 143.774" stroke="url(#paint0_linear_438_237)" stroke-width="2"/>
<defs>
<linearGradient id="paint0_linear_438_237" x1="-403.071" y1="-1692.35" x2="927.335" y2="-1190.71" gradientUnits="userSpaceOnUse">
<stop offset="0.131184" stop-color="#8C082F"/>
<stop offset="0.250125" stop-color="#46427C" stop-opacity="0"/>
<stop offset="0.474459" stop-color="#0276DE"/>
<stop offset="0.639634" stop-color="#076BC5" stop-opacity="0"/>
<stop offset="0.871421" stop-color="#0C61AD"/>
</linearGradient>
</defs>
</svg>
