<svg width="1220" height="1081" viewBox="0 0 1220 1081" fill="none" xmlns="http://www.w3.org/2000/svg">
<path d="M189.642 -2049C-146.858 -1829.5 146.642 -1729.5 290.642 -1705.5C482.571 -1673.51 928.641 -1728.5 1102.14 -1579.5C1275.64 -1430.5 1013.14 -1480.5 1150.14 -1336C1613.24 -847.552 717.721 -920.461 428.142 -904.5C-366.817 -860.683 184.642 -550.5 565.142 -467.5C874.142 -319 155.642 -344.5 186.642 -57.5C-13.3583 44.5 -124.359 327 299.642 392C628.305 442.385 965.142 300 1145.14 527.5C1251.64 662.109 1227.76 904.008 1101.14 1046C907.642 1263 440.642 1229.5 170.142 1315.5C-100.358 1401.5 -30.3584 1536.38 164.642 1591.5C398.76 1657.68 582.142 1607.5 783.642 1741C985.142 1874.5 926.142 1914.5 741.642 1920C674.642 1922 485.91 1899.41 336.642 1971.5C175.142 2049.5 207.155 2214.06 276.642 2272C430.142 2400 623.642 2241.5 558.642 2078C549.309 2051.5 517.142 1994 428.142 1971.5" stroke="url(#paint0_linear_126_351)" stroke-width="2"/>
<g filter="url(#filter0_f_126_351)">
<ellipse cx="676" cy="1227.5" rx="178" ry="75.5" fill="#0B0B0B"/>
</g>
<defs>
<filter id="filter0_f_126_351" x="371" y="1025" width="610" height="405" filterUnits="userSpaceOnUse" color-interpolation-filters="sRGB">
<feFlood flood-opacity="0" result="BackgroundImageFix"/>
<feBlend mode="normal" in="SourceGraphic" in2="BackgroundImageFix" result="shape"/>
<feGaussianBlur stdDeviation="63.5" result="effect1_foregroundBlur_126_351"/>
</filter>
<linearGradient id="paint0_linear_126_351" x1="-391.361" y1="-365.996" x2="1302.32" y2="272.621" gradientUnits="userSpaceOnUse">
<stop offset="0.131184" stop-color="#8C082F"/>
<stop offset="0.250125" stop-color="#46427C" stop-opacity="0"/>
<stop offset="0.474459" stop-color="#0276DE"/>
<stop offset="0.639634" stop-color="#076BC5" stop-opacity="0"/>
<stop offset="0.871421" stop-color="#0C61AD"/>
</linearGradient>
</defs>
</svg>
