<svg width="280" height="693" viewBox="0 0 280 693" fill="none" xmlns="http://www.w3.org/2000/svg">
<path d="M-823.358 -415C-1159.86 -195.5 -866.358 -95.5 -722.358 -71.5C-530.429 -39.5117 -84.3585 -94.5 89.1415 54.5C262.641 203.5 0.141479 153.5 137.141 298C600.237 786.448 -295.279 713.539 -584.858 729.5C-1379.82 773.317 -828.358 1083.5 -447.858 1166.5C-138.858 1315 -857.358 1289.5 -826.358 1576.5C-1026.36 1678.5 -1137.36 1961 -713.358 2026C-384.695 2076.38 -47.8585 1934 132.141 2161.5C238.645 2296.11 214.757 2538.01 88.1418 2680C-105.358 2897 -572.358 2863.5 -842.858 2949.5C-1113.36 3035.5 -1043.36 3170.38 -848.358 3225.5C-614.24 3291.68 -430.858 3241.5 -229.358 3375C-27.8583 3508.5 -86.8583 3548.5 -271.358 3554C-338.358 3556 -527.09 3533.41 -676.358 3605.5C-837.858 3683.5 -805.845 3848.06 -736.358 3906C-582.858 4034 -389.358 3875.5 -454.358 3712C-463.691 3685.5 -495.858 3628 -584.858 3605.5" stroke="url(#paint0_linear_619_188)" stroke-width="2"/>
<defs>
<linearGradient id="paint0_linear_619_188" x1="-1404.36" y1="1268" x2="289.323" y2="1906.62" gradientUnits="userSpaceOnUse">
<stop offset="0.131184" stop-color="#8C082F"/>
<stop offset="0.250125" stop-color="#46427C" stop-opacity="0"/>
<stop offset="0.474459" stop-color="#0276DE"/>
<stop offset="0.639634" stop-color="#076BC5" stop-opacity="0"/>
<stop offset="0.871421" stop-color="#0C61AD"/>
</linearGradient>
</defs>
</svg>
