<svg width="152" height="250" viewBox="0 0 152 250" fill="none" xmlns="http://www.w3.org/2000/svg">
<path d="M161.642 -67C-174.858 152.5 118.642 252.5 262.642 276.5C454.571 308.488 900.641 253.5 1074.14 402.5C1247.64 551.5 985.141 501.5 1122.14 646C1585.24 1134.45 689.721 1061.54 400.142 1077.5C-394.817 1121.32 156.642 1431.5 537.142 1514.5C846.142 1663 127.642 1637.5 158.642 1924.5C-41.3583 2026.5 -152.359 2309 271.642 2374C600.305 2424.38 937.142 2282 1117.14 2509.5C1223.64 2644.11 1199.76 2886.01 1073.14 3028C879.642 3245 412.642 3211.5 142.142 3297.5C-128.358 3383.5 -58.3584 3518.38 136.642 3573.5C370.76 3639.68 554.142 3589.5 755.642 3723C957.142 3856.5 898.142 3896.5 713.642 3902C646.642 3904 457.91 3881.41 308.642 3953.5C147.142 4031.5 179.155 4196.06 248.642 4254C402.142 4382 595.642 4223.5 530.642 4060C521.309 4033.5 489.142 3976 400.142 3953.5" stroke="url(#paint0_linear_126_351)" stroke-width="2"/>
<defs>
<linearGradient id="paint0_linear_126_351" x1="-419.361" y1="1616" x2="1274.32" y2="2254.62" gradientUnits="userSpaceOnUse">
<stop offset="0.131184" stop-color="#8C082F"/>
<stop offset="0.250125" stop-color="#46427C" stop-opacity="0"/>
<stop offset="0.474459" stop-color="#0276DE"/>
<stop offset="0.639634" stop-color="#076BC5" stop-opacity="0"/>
<stop offset="0.871421" stop-color="#0C61AD"/>
</linearGradient>
</defs>
</svg>
