<svg width="67" height="87" viewBox="0 0 67 87" fill="none" xmlns="http://www.w3.org/2000/svg">
<path d="M-388.358 -1611C-724.858 -1391.5 -431.358 -1291.5 -287.358 -1267.5C-95.4287 -1235.51 350.641 -1290.5 524.141 -1141.5C697.641 -992.5 435.141 -1042.5 572.141 -898C1035.24 -409.552 139.721 -482.461 -149.858 -466.5C-944.817 -422.683 -393.358 -112.5 -12.8584 -29.5C296.142 119 -422.358 93.5 -391.358 380.5C-591.358 482.5 -702.359 765 -278.358 830C50.3054 880.385 387.142 738 567.141 965.5C673.645 1100.11 649.757 1342.01 523.142 1484C329.642 1701 -137.358 1667.5 -407.858 1753.5C-678.358 1839.5 -608.358 1974.38 -413.358 2029.5C-179.24 2095.68 4.14172 2045.5 205.642 2179C407.142 2312.5 348.142 2352.5 163.642 2358C96.6415 2360 -92.0901 2337.41 -241.358 2409.5C-402.858 2487.5 -370.845 2652.06 -301.358 2710C-147.858 2838 45.6419 2679.5 -19.3581 2516C-28.6914 2489.5 -60.8581 2432 -149.858 2409.5" stroke="url(#paint0_linear_126_351)" stroke-width="2"/>
<defs>
<linearGradient id="paint0_linear_126_351" x1="-969.361" y1="72.0043" x2="724.323" y2="710.621" gradientUnits="userSpaceOnUse">
<stop offset="0.131184" stop-color="#8C082F"/>
<stop offset="0.250125" stop-color="#46427C" stop-opacity="0"/>
<stop offset="0.474459" stop-color="#0276DE"/>
<stop offset="0.639634" stop-color="#076BC5" stop-opacity="0"/>
<stop offset="0.871421" stop-color="#0C61AD"/>
</linearGradient>
</defs>
</svg>
