<svg width="203" height="261" viewBox="0 0 203 261" fill="none" xmlns="http://www.w3.org/2000/svg">
<path d="M171.642 -1197C-164.858 -977.5 128.642 -877.5 272.642 -853.5C464.571 -821.512 910.641 -876.5 1084.14 -727.5C1257.64 -578.5 995.141 -628.5 1132.14 -484C1595.24 4.44797 699.721 -68.4611 410.142 -52.5C-384.817 -8.68338 166.642 301.5 547.142 384.5C856.142 533 137.642 507.5 168.642 794.5C-31.3583 896.5 -142.359 1179 281.642 1244C610.305 1294.38 947.142 1152 1127.14 1379.5C1233.64 1514.11 1209.76 1756.01 1083.14 1898C889.642 2115 422.642 2081.5 152.142 2167.5C-118.358 2253.5 -48.3584 2388.38 146.642 2443.5C380.76 2509.68 564.142 2459.5 765.642 2593C967.142 2726.5 908.142 2766.5 723.642 2772C656.642 2774 467.91 2751.41 318.642 2823.5C157.142 2901.5 189.155 3066.06 258.642 3124C412.142 3252 605.642 3093.5 540.642 2930C531.309 2903.5 499.142 2846 410.142 2823.5" stroke="url(#paint0_linear_126_351)" stroke-width="2"/>
<defs>
<linearGradient id="paint0_linear_126_351" x1="-409.361" y1="486.004" x2="1284.32" y2="1124.62" gradientUnits="userSpaceOnUse">
<stop offset="0.131184" stop-color="#8C082F"/>
<stop offset="0.250125" stop-color="#46427C" stop-opacity="0"/>
<stop offset="0.474459" stop-color="#0276DE"/>
<stop offset="0.639634" stop-color="#076BC5" stop-opacity="0"/>
<stop offset="0.871421" stop-color="#0C61AD"/>
</linearGradient>
</defs>
</svg>
